<svg width="1280" height="64" viewBox="0 0 1280 64" fill="none" xmlns="http://www.w3.org/2000/svg">
<path d="M592.102 37C592.008 36.8125 591.932 36.4785 591.873 35.998C591.117 36.7832 590.215 37.1758 589.166 37.1758C588.229 37.1758 587.458 36.9121 586.854 36.3848C586.257 35.8516 585.958 35.1777 585.958 34.3633C585.958 33.373 586.333 32.6055 587.083 32.0605C587.839 31.5098 588.899 31.2344 590.265 31.2344H591.847V30.4873C591.847 29.9189 591.677 29.4678 591.337 29.1338C590.997 28.7939 590.496 28.624 589.834 28.624C589.254 28.624 588.768 28.7705 588.375 29.0635C587.982 29.3564 587.786 29.7109 587.786 30.127H586.151C586.151 29.6523 586.318 29.1953 586.652 28.7559C586.992 28.3105 587.449 27.959 588.023 27.7012C588.604 27.4434 589.239 27.3145 589.931 27.3145C591.026 27.3145 591.885 27.5898 592.506 28.1406C593.127 28.6855 593.449 29.4385 593.473 30.3994V34.7764C593.473 35.6494 593.584 36.3438 593.807 36.8594V37H592.102ZM589.403 35.7607C589.913 35.7607 590.396 35.6289 590.854 35.3652C591.311 35.1016 591.642 34.7588 591.847 34.3369V32.3857H590.572C588.58 32.3857 587.584 32.9688 587.584 34.1348C587.584 34.6445 587.754 35.043 588.094 35.3301C588.434 35.6172 588.87 35.7607 589.403 35.7607ZM597.788 37H596.162V23.5H597.788V37ZM600.012 32.166C600.012 30.6836 600.354 29.5059 601.04 28.6328C601.726 27.7539 602.634 27.3145 603.765 27.3145C604.925 27.3145 605.83 27.7246 606.48 28.5449L606.56 27.4902H608.045V36.7715C608.045 38.002 607.679 38.9717 606.946 39.6807C606.22 40.3896 605.241 40.7441 604.011 40.7441C603.325 40.7441 602.654 40.5977 601.998 40.3047C601.342 40.0117 600.841 39.6104 600.495 39.1006L601.339 38.125C602.036 38.9863 602.889 39.417 603.896 39.417C604.688 39.417 605.303 39.1943 605.742 38.749C606.188 38.3037 606.41 37.6768 606.41 36.8682V36.0508C605.76 36.8008 604.872 37.1758 603.747 37.1758C602.634 37.1758 601.731 36.7275 601.04 35.8311C600.354 34.9346 600.012 33.7129 600.012 32.166ZM601.646 32.3506C601.646 33.4229 601.866 34.2666 602.306 34.8818C602.745 35.4912 603.36 35.7959 604.151 35.7959C605.177 35.7959 605.93 35.3301 606.41 34.3984V30.0566C605.912 29.1484 605.165 28.6943 604.169 28.6943C603.378 28.6943 602.76 29.002 602.314 29.6172C601.869 30.2324 601.646 31.1436 601.646 32.3506ZM616.377 37C616.283 36.8125 616.207 36.4785 616.148 35.998C615.393 36.7832 614.49 37.1758 613.441 37.1758C612.504 37.1758 611.733 36.9121 611.13 36.3848C610.532 35.8516 610.233 35.1777 610.233 34.3633C610.233 33.373 610.608 32.6055 611.358 32.0605C612.114 31.5098 613.175 31.2344 614.54 31.2344H616.122V30.4873C616.122 29.9189 615.952 29.4678 615.612 29.1338C615.272 28.7939 614.771 28.624 614.109 28.624C613.529 28.624 613.043 28.7705 612.65 29.0635C612.258 29.3564 612.062 29.7109 612.062 30.127H610.427C610.427 29.6523 610.594 29.1953 610.928 28.7559C611.268 28.3105 611.725 27.959 612.299 27.7012C612.879 27.4434 613.515 27.3145 614.206 27.3145C615.302 27.3145 616.16 27.5898 616.781 28.1406C617.402 28.6855 617.725 29.4385 617.748 30.3994V34.7764C617.748 35.6494 617.859 36.3438 618.082 36.8594V37H616.377ZM613.679 35.7607C614.188 35.7607 614.672 35.6289 615.129 35.3652C615.586 35.1016 615.917 34.7588 616.122 34.3369V32.3857H614.848C612.855 32.3857 611.859 32.9688 611.859 34.1348C611.859 34.6445 612.029 35.043 612.369 35.3301C612.709 35.6172 613.146 35.7607 613.679 35.7607ZM622.617 27.4902L622.714 28.6064C623.37 27.7451 624.275 27.3145 625.43 27.3145C626.42 27.3145 627.158 27.6104 627.645 28.2021C628.137 28.7939 628.392 29.6846 628.409 30.874V37H625.438V30.9971C625.438 30.5166 625.342 30.165 625.148 29.9424C624.955 29.7139 624.604 29.5996 624.094 29.5996C623.514 29.5996 623.083 29.8281 622.802 30.2852V37H619.84V27.4902H622.617ZM634.658 37.1758C633.199 37.1758 632.019 36.7422 631.116 35.875C630.214 35.002 629.763 33.8682 629.763 32.4736V32.2275C629.763 31.2549 629.941 30.3965 630.299 29.6523C630.662 28.9082 631.189 28.334 631.881 27.9297C632.572 27.5195 633.393 27.3145 634.342 27.3145C635.678 27.3145 636.732 27.7305 637.506 28.5625C638.279 29.3887 638.666 30.543 638.666 32.0254V33.1768H632.777C632.883 33.71 633.114 34.1289 633.472 34.4336C633.829 34.7383 634.292 34.8906 634.86 34.8906C635.798 34.8906 636.53 34.5625 637.058 33.9062L638.411 35.5059C638.042 36.0156 637.518 36.4229 636.838 36.7275C636.164 37.0264 635.438 37.1758 634.658 37.1758ZM634.324 29.5996C633.457 29.5996 632.941 30.1738 632.777 31.3223H635.766V31.0938C635.777 30.6191 635.657 30.2529 635.405 29.9951C635.153 29.7314 634.793 29.5996 634.324 29.5996ZM648.079 33.0977L649.037 27.4902H651.876L649.635 37H647.13L645.557 31.3574L643.975 37H641.47L639.229 27.4902H642.067L643.008 33.2295L644.52 27.4902H646.585L648.079 33.0977ZM657.923 34.3281C657.923 34.0762 657.791 33.874 657.527 33.7217C657.264 33.5693 656.763 33.4111 656.024 33.2471C655.286 33.083 654.677 32.8691 654.196 32.6055C653.716 32.3359 653.35 32.0107 653.098 31.6299C652.846 31.249 652.72 30.8125 652.72 30.3203C652.72 29.4473 653.08 28.7295 653.801 28.167C654.521 27.5986 655.465 27.3145 656.631 27.3145C657.885 27.3145 658.893 27.5986 659.654 28.167C660.416 28.7354 660.797 29.4824 660.797 30.4082H657.826C657.826 29.6465 657.425 29.2656 656.622 29.2656C656.312 29.2656 656.051 29.3535 655.84 29.5293C655.629 29.6992 655.523 29.9131 655.523 30.1709C655.523 30.4346 655.652 30.6484 655.91 30.8125C656.168 30.9766 656.578 31.1113 657.141 31.2168C657.709 31.3223 658.207 31.4482 658.635 31.5947C660.064 32.0869 660.779 32.9688 660.779 34.2402C660.779 35.1074 660.393 35.8135 659.619 36.3584C658.852 36.9033 657.855 37.1758 656.631 37.1758C655.816 37.1758 655.09 37.0293 654.451 36.7363C653.812 36.4434 653.314 36.0449 652.957 35.541C652.6 35.0371 652.421 34.5068 652.421 33.9502H655.189C655.201 34.3896 655.348 34.7119 655.629 34.917C655.91 35.1162 656.271 35.2158 656.71 35.2158C657.114 35.2158 657.416 35.1338 657.615 34.9697C657.82 34.8057 657.923 34.5918 657.923 34.3281Z" fill="#0099FF"/>
<path d="M690 35C690 35.2652 689.895 35.5196 689.707 35.7071C689.52 35.8946 689.265 36 689 36C688.735 36 688.48 35.8946 688.293 35.7071C688.105 35.5196 688 35.2652 688 35V23C688 22.7348 687.895 22.4804 687.707 22.2929C687.52 22.1054 687.265 22 687 22H673C672.735 22 672.48 22.1054 672.293 22.2929C672.105 22.4804 672 22.7348 672 23V36C672 36.5304 672.211 37.0391 672.586 37.4142C672.961 37.7893 673.47 38 674 38H689C690.654 38 692 36.654 692 35V25H690V35ZM682 25H685V27H682V25ZM682 29H685V31H682V29ZM675 25H680V31H675V25ZM675 35V33H685V35H675Z" fill="#274060"/>
</svg>
